<svg xmlns="http://www.w3.org/2000/svg" width="30" height="30" viewBox="0 0 30 30"><path d="M-7.553-17.666a.951.951,0,0,0,.937.791h.967a.949.949,0,0,0,.955-1.055,7.66,7.66,0,0,0-2.145-4.377,5.557,5.557,0,0,1-1.547-3.135.944.944,0,0,0-.943-.809h-.961a.956.956,0,0,0-.955,1.055A8.517,8.517,0,0,0-8.865-20.25,4.759,4.759,0,0,1-7.553-17.666Zm6.562,0a.951.951,0,0,0,.937.791H.914a.949.949,0,0,0,.955-1.055A7.66,7.66,0,0,0-.275-22.307a5.557,5.557,0,0,1-1.547-3.135.944.944,0,0,0-.943-.809h-.961A.952.952,0,0,0-4.682-25.2,8.517,8.517,0,0,0-2.3-20.25,4.759,4.759,0,0,1-.99-17.666ZM8.437-15H-13.125A1.873,1.873,0,0,0-15-13.125v11.25A5.626,5.626,0,0,0-9.375,3.75H1.875A5.626,5.626,0,0,0,7.5-1.875h.937A6.567,6.567,0,0,0,15-8.437,6.567,6.567,0,0,0,8.437-15Zm0,9.375H7.5V-11.25h.937A2.813,2.813,0,0,1,11.25-8.437,2.813,2.813,0,0,1,8.437-5.625Z" transform="translate(15 26.25)" fill="#fff"/></svg>