<svg xmlns="http://www.w3.org/2000/svg" width="30" height="30" viewBox="0 0 30 30"><path d="M-15-2.5V0c0,2.068,5.039,3.75,11.25,3.75S7.5,2.068,7.5,0V-2.5C5.08-.8.656,0-3.75,0S-12.58-.8-15-2.5ZM3.75-18.75C9.961-18.75,15-20.432,15-22.5S9.961-26.25,3.75-26.25-7.5-24.568-7.5-22.5-2.461-18.75,3.75-18.75ZM-15-8.648v3.023c0,2.068,5.039,3.75,11.25,3.75S7.5-3.557,7.5-5.625V-8.648C5.08-6.656.65-5.625-3.75-5.625S-12.58-6.656-15-8.648ZM9.375-8C12.732-8.654,15-9.861,15-11.25v-2.5A14.388,14.388,0,0,1,9.375-11.73ZM-3.75-16.875c-6.211,0-11.25,2.1-11.25,4.687S-9.961-7.5-3.75-7.5,7.5-9.6,7.5-12.187,2.461-16.875-3.75-16.875Zm12.85,3.3c3.516-.633,5.9-1.875,5.9-3.3v-2.5c-2.08,1.471-5.654,2.262-9.416,2.449A6.562,6.562,0,0,1,9.1-13.576Z" transform="translate(15 26.25)" fill="#fff"/></svg>