<svg xmlns="http://www.w3.org/2000/svg" width="37.5" height="26.25" viewBox="0 0 37.5 26.25"><path d="M-13.125-13.125a3.753,3.753,0,0,0,3.75-3.75,3.753,3.753,0,0,0-3.75-3.75,3.753,3.753,0,0,0-3.75,3.75A3.753,3.753,0,0,0-13.125-13.125Zm26.25,0a3.753,3.753,0,0,0,3.75-3.75,3.753,3.753,0,0,0-3.75-3.75,3.753,3.753,0,0,0-3.75,3.75A3.753,3.753,0,0,0,13.125-13.125ZM15-11.25H11.25a3.739,3.739,0,0,0-2.643,1.09,8.571,8.571,0,0,1,4.4,6.41h3.867A1.873,1.873,0,0,0,18.75-5.625V-7.5A3.753,3.753,0,0,0,15-11.25Zm-15,0a6.559,6.559,0,0,0,6.562-6.562A6.559,6.559,0,0,0,0-24.375a6.559,6.559,0,0,0-6.562,6.562A6.559,6.559,0,0,0,0-11.25ZM4.5-9.375H4.014A9.23,9.23,0,0,1,0-8.437a9.25,9.25,0,0,1-4.014-.937H-4.5a6.752,6.752,0,0,0-6.75,6.75V-.937A2.813,2.813,0,0,0-8.438,1.875H8.437A2.813,2.813,0,0,0,11.25-.937V-2.625A6.752,6.752,0,0,0,4.5-9.375ZM-8.607-10.16a3.739,3.739,0,0,0-2.643-1.09H-15A3.753,3.753,0,0,0-18.75-7.5v1.875A1.873,1.873,0,0,0-16.875-3.75h3.861A8.592,8.592,0,0,1-8.607-10.16Z" transform="translate(18.75 24.375)" fill="#fff"/></svg>