<svg xmlns="http://www.w3.org/2000/svg" width="20" height="20" viewBox="0 0 20 20"><path d="M4.062-8.75H.937A.937.937,0,0,0,0-7.812V1.562A.937.937,0,0,0,.937,2.5H4.062A.937.937,0,0,0,5,1.562V-7.812A.937.937,0,0,0,4.062-8.75ZM2.5.937A.937.937,0,0,1,1.562,0,.937.937,0,0,1,2.5-.937.937.937,0,0,1,3.437,0,.937.937,0,0,1,2.5.937ZM15-14.318c0-2.869-1.875-3.182-2.812-3.182-.788,0-1.152,1.535-1.325,2.258a4.731,4.731,0,0,1-.992,2.3C8.6-11.671,7.936-10.052,6.389-8.523a.468.468,0,0,0-.139.333V.16a.469.469,0,0,0,.46.469,6.147,6.147,0,0,1,2.057.632A11.214,11.214,0,0,0,13.437,2.5h.111c1.671,0,3.647-.016,4.444-1.162a2.074,2.074,0,0,0,.24-1.743,3.089,3.089,0,0,0,.64-2.92,3.263,3.263,0,0,0,.364-3.1l0,0A2.828,2.828,0,0,0,20-8.356a2.334,2.334,0,0,0-2.326-2.269H13.7C13.986-11.732,15-12.661,15-14.318Z" transform="translate(0 17.5)" fill="#692fa5"/></svg>